<svg width="255" height="68" viewBox="0 0 255 68" fill="none" xmlns="http://www.w3.org/2000/svg">
<path d="M35.0258 34.5664C33.4242 34.5664 32.018 34.3711 30.807 33.9805C29.6091 33.5768 28.6391 33.1146 27.8969 32.5938L26.7836 34.0195H25.2211L27.1352 24.5273H28.7172C28.7823 25.6602 28.932 26.7214 29.1664 27.7109C29.4138 28.7005 29.8109 29.5924 30.3578 30.3867C30.9047 31.207 31.6143 31.8451 32.4867 32.3008C33.3591 32.7435 34.4398 32.9648 35.7289 32.9648C37.669 32.9648 39.225 32.431 40.3969 31.3633C41.5687 30.2826 42.1547 28.8112 42.1547 26.9492C42.1547 25.9466 41.9073 25.0547 41.4125 24.2734C40.9177 23.4922 40.1755 22.8867 39.1859 22.457C38.2484 22.0534 37.3174 21.6953 36.393 21.3828C35.4815 21.0573 34.5831 20.6797 33.6977 20.25C32.5258 19.6901 31.5818 18.8893 30.8656 17.8477C30.1495 16.793 29.7914 15.6081 29.7914 14.293C29.7914 13.043 30.0648 11.8906 30.6117 10.8359C31.1716 9.78125 31.9073 8.86979 32.8187 8.10156C33.7042 7.35938 34.7719 6.76693 36.0219 6.32422C37.2849 5.88151 38.5349 5.66016 39.7719 5.66016C40.9307 5.66016 42.0245 5.79688 43.0531 6.07031C44.0948 6.34375 45.1365 6.85807 46.1781 7.61328L47.2523 6.28516H48.8148L46.8422 15.4844H45.2602C45.2211 14.4818 45.1169 13.4466 44.9477 12.3789C44.7914 11.3112 44.518 10.4258 44.1273 9.72266C43.6977 8.95443 43.0987 8.35547 42.3305 7.92578C41.5622 7.48307 40.5401 7.26172 39.2641 7.26172C37.7276 7.26172 36.4385 7.79557 35.3969 8.86328C34.3552 9.91797 33.8344 11.1745 33.8344 12.6328C33.8344 13.5964 34.0232 14.4167 34.4008 15.0938C34.7914 15.7578 35.3904 16.2982 36.1977 16.7148C37.057 17.1576 37.9555 17.5417 38.893 17.8672C39.8435 18.1797 40.6898 18.5117 41.432 18.8633C42.9294 19.5664 44.0948 20.4128 44.9281 21.4023C45.7745 22.3919 46.1977 23.6029 46.1977 25.0352C46.1977 26.4154 45.8982 27.7044 45.2992 28.9023C44.7003 30.1003 43.8995 31.1029 42.8969 31.9102C41.8422 32.7695 40.6573 33.4271 39.3422 33.8828C38.0401 34.3385 36.6013 34.5664 35.0258 34.5664ZM81.1008 31.793L80.8078 33.043C79.6099 33.5247 78.6529 33.8568 77.9367 34.0391C77.2206 34.2344 76.6086 34.332 76.1008 34.332C75.0591 34.332 74.2779 34.0651 73.757 33.5312C73.2362 32.9844 72.9758 32.3138 72.9758 31.5195C72.9758 31.2331 73.0018 30.9206 73.0539 30.582C73.106 30.2305 73.1906 29.8203 73.3078 29.3516L75.2219 22.0664C75.3651 21.5065 75.4758 20.9987 75.5539 20.543C75.6451 20.0872 75.6906 19.7227 75.6906 19.4492C75.6906 18.5768 75.5018 17.8867 75.1242 17.3789C74.7466 16.8711 74.1477 16.6172 73.3273 16.6172C72.4549 16.6172 71.5956 16.8255 70.7492 17.2422C69.9159 17.6458 68.9719 18.4076 67.9172 19.5273L64.5187 34H60.8859L63.9523 20.9531C64.0174 20.6667 64.076 20.3672 64.1281 20.0547C64.1932 19.7292 64.2258 19.4883 64.2258 19.332C64.2258 18.4857 64.0109 17.8216 63.5812 17.3398C63.1646 16.8581 62.5461 16.6172 61.7258 16.6172C60.9836 16.6172 60.1633 16.806 59.2648 17.1836C58.3664 17.5482 57.3247 18.375 56.1398 19.6641L52.8391 34H49.2062L52.1164 21.3438C52.2206 20.888 52.3182 20.3997 52.4094 19.8789C52.5135 19.3581 52.5656 18.9154 52.5656 18.5508C52.5656 17.7956 52.4419 17.3008 52.1945 17.0664C51.9471 16.819 51.4654 16.6953 50.7492 16.6953C50.4628 16.6953 50.0917 16.7474 49.6359 16.8516C49.1932 16.9557 48.8482 17.0404 48.6008 17.1055L48.8937 15.8555C49.9094 15.3997 50.8078 15.0612 51.5891 14.8398C52.3703 14.6185 53.0409 14.5078 53.6008 14.5078C54.6424 14.5078 55.3781 14.7943 55.8078 15.3672C56.2505 15.9271 56.4849 16.6953 56.5109 17.6719H56.6281C58.1646 16.4609 59.4276 15.5951 60.4172 15.0742C61.4068 14.5534 62.5852 14.293 63.9523 14.293C65.1112 14.293 66.0487 14.6315 66.7648 15.3086C67.494 15.9727 67.9042 16.8125 67.9953 17.8281H68.0734C69.4667 16.6693 70.7036 15.7904 71.7844 15.1914C72.8781 14.5924 74.1477 14.293 75.593 14.293C76.843 14.293 77.8 14.6576 78.4641 15.3867C79.1411 16.1029 79.4797 17.0469 79.4797 18.2188C79.4797 18.4531 79.4406 18.8698 79.3625 19.4688C79.2974 20.0677 79.1867 20.6602 79.0305 21.2461L77.3898 27.5156C77.2727 27.9323 77.162 28.4141 77.0578 28.9609C76.9536 29.4948 76.9016 29.9115 76.9016 30.2109C76.9016 30.9531 77.0578 31.4609 77.3703 31.7344C77.6828 31.9948 78.2102 32.125 78.9523 32.125C79.1997 32.125 79.5578 32.0924 80.0266 32.0273C80.4953 31.9622 80.8534 31.8841 81.1008 31.793ZM95.0469 31.4219H94.9102C94.6237 31.6562 94.2786 31.9557 93.875 32.3203C93.4844 32.6719 93.0221 33.0104 92.4883 33.3359C91.9805 33.6615 91.4271 33.9414 90.8281 34.1758C90.2292 34.4232 89.5781 34.5469 88.875 34.5469C86.987 34.5469 85.5026 33.8698 84.4219 32.5156C83.3542 31.1615 82.8203 29.3125 82.8203 26.9688C82.8203 25.3542 83.1198 23.7852 83.7188 22.2617C84.3177 20.7383 85.1445 19.3711 86.1992 18.1602C87.2018 17.0013 88.3932 16.0703 89.7734 15.3672C91.1536 14.651 92.5729 14.293 94.0312 14.293C94.9557 14.293 95.8346 14.4167 96.668 14.6641C97.5143 14.9115 98.1784 15.1914 98.6602 15.5039L102.234 14.5859L102.469 14.8789L99.5 27.4766C99.3958 27.8802 99.2852 28.375 99.168 28.9609C99.0638 29.5339 99.0117 29.957 99.0117 30.2305C99.0117 30.9727 99.168 31.474 99.4805 31.7344C99.793 31.9948 100.32 32.125 101.062 32.125C101.31 32.125 101.661 32.0859 102.117 32.0078C102.573 31.9297 102.924 31.8451 103.172 31.7539L102.879 33.0039C101.707 33.4727 100.835 33.8112 100.262 34.0195C99.6888 34.2279 98.9922 34.332 98.1719 34.332C97.2344 34.332 96.4922 34.0586 95.9453 33.5117C95.3984 32.9648 95.099 32.2682 95.0469 31.4219ZM97.8398 19.0781C97.8398 18.6484 97.7943 18.2383 97.7031 17.8477C97.612 17.457 97.4232 17.0924 97.1367 16.7539C96.8763 16.4284 96.5182 16.168 96.0625 15.9727C95.6068 15.7773 95.0339 15.6797 94.3438 15.6797C93.3932 15.6797 92.4688 15.9922 91.5703 16.6172C90.6719 17.2422 89.8646 18.082 89.1484 19.1367C88.4714 20.1263 87.918 21.3242 87.4883 22.7305C87.0586 24.1367 86.8438 25.5625 86.8438 27.0078C86.8438 27.8021 86.8893 28.5052 86.9805 29.1172C87.0716 29.7292 87.2474 30.2891 87.5078 30.7969C87.7552 31.2917 88.1133 31.6758 88.582 31.9492C89.0508 32.2227 89.6432 32.3594 90.3594 32.3594C91.0885 32.3594 91.8503 32.1576 92.6445 31.7539C93.4518 31.3372 94.3568 30.6146 95.3594 29.5859L97.8398 19.0781ZM122.216 17.4766C122.216 17.8411 122.164 18.2448 122.059 18.6875C121.955 19.1172 121.805 19.4753 121.61 19.7617C121.376 20.1133 121.115 20.3867 120.829 20.582C120.555 20.7643 120.158 20.8555 119.637 20.8555C118.934 20.8555 118.407 20.6797 118.055 20.3281C117.704 19.9766 117.528 19.5859 117.528 19.1562C117.528 18.7526 117.626 18.3034 117.821 17.8086C118.016 17.3008 118.218 16.7995 118.427 16.3047C118.27 16.3047 118.01 16.3503 117.645 16.4414C117.294 16.5195 116.864 16.6823 116.356 16.9297C115.848 17.1771 115.269 17.5482 114.618 18.043C113.98 18.5378 113.296 19.1953 112.567 20.0156L109.423 34H105.79L108.641 21.3438C108.707 21.0312 108.798 20.5625 108.915 19.9375C109.045 19.3125 109.11 18.8503 109.11 18.5508C109.11 17.8216 108.986 17.3333 108.739 17.0859C108.492 16.8385 107.997 16.7148 107.255 16.7148C106.968 16.7148 106.604 16.7669 106.161 16.8711C105.718 16.9622 105.373 17.0404 105.126 17.1055L105.419 15.8555C106.434 15.3997 107.333 15.0612 108.114 14.8398C108.895 14.6185 109.566 14.5078 110.126 14.5078C111.167 14.5078 111.91 14.7943 112.352 15.3672C112.795 15.9271 113.016 16.7734 113.016 17.9062H113.134C114.683 16.5651 115.855 15.6276 116.649 15.0938C117.457 14.5599 118.296 14.293 119.169 14.293C119.585 14.293 119.989 14.3451 120.38 14.4492C120.77 14.5534 121.102 14.7292 121.376 14.9766C121.662 15.25 121.871 15.569 122.001 15.9336C122.144 16.2852 122.216 16.7995 122.216 17.4766ZM142.177 16.5195C142.177 17.0924 141.949 17.6263 141.494 18.1211C141.051 18.6029 140.498 18.8438 139.834 18.8438C139.404 18.8438 138.981 18.7852 138.564 18.668C138.147 18.5508 137.692 18.375 137.197 18.1406C136.481 18.5443 135.739 19.0456 134.97 19.6445C134.215 20.2305 133.388 20.9466 132.49 21.793C133.232 23.7201 133.857 25.3021 134.365 26.5391C134.886 27.763 135.328 28.7656 135.693 29.5469C136.162 30.5234 136.676 31.2201 137.236 31.6367C137.809 32.0404 138.434 32.2422 139.111 32.2422C139.423 32.2422 139.853 32.1966 140.4 32.1055C140.947 32.0013 141.37 31.8971 141.67 31.793L141.377 33.082C140.166 33.5768 139.215 33.9089 138.525 34.0781C137.835 34.2474 137.138 34.332 136.435 34.332C135.602 34.332 134.886 34.1042 134.287 33.6484C133.701 33.1797 133.134 32.3398 132.588 31.1289C132.054 29.9701 131.578 28.8307 131.162 27.7109C130.745 26.5781 130.335 25.5104 129.931 24.5078L127.646 26.4609L125.966 34H122.334L128.134 8.86328C128.226 8.45964 128.284 8.17969 128.31 8.02344C128.349 7.86719 128.369 7.67188 128.369 7.4375C128.369 6.96875 128.291 6.61068 128.134 6.36328C127.978 6.10286 127.757 5.90755 127.47 5.77734C127.197 5.66016 126.852 5.58203 126.435 5.54297C126.018 5.50391 125.595 5.45833 125.166 5.40625L125.439 4.21484L132.685 3.76562L132.88 4.05859L128.115 24.3906H128.193C129.664 22.8021 130.999 21.4284 132.197 20.2695C133.408 19.0977 134.671 17.9062 135.986 16.6953C136.923 15.8359 137.666 15.25 138.213 14.9375C138.759 14.612 139.345 14.4492 139.97 14.4492C140.634 14.4492 141.168 14.638 141.572 15.0156C141.976 15.3802 142.177 15.8815 142.177 16.5195ZM159.678 18.3555C159.678 19.7357 159.242 20.9206 158.37 21.9102C157.51 22.8997 156.254 23.6875 154.6 24.2734C153.389 24.7161 152.165 25.0742 150.928 25.3477C149.691 25.6211 148.324 25.849 146.827 26.0312C146.827 28.0885 147.204 29.6641 147.959 30.7578C148.728 31.8385 149.847 32.3789 151.319 32.3789C152.621 32.3789 153.767 32.0534 154.756 31.4023C155.759 30.7513 156.742 29.7812 157.705 28.4922L158.819 29.3125C157.777 30.901 156.475 32.1706 154.912 33.1211C153.35 34.0716 151.729 34.5469 150.049 34.5469C147.745 34.5469 145.98 33.9023 144.756 32.6133C143.545 31.3242 142.94 29.4948 142.94 27.125C142.94 25.4844 143.194 23.9219 143.702 22.4375C144.222 20.9401 144.978 19.5729 145.967 18.3359C146.931 17.125 148.109 16.1484 149.502 15.4062C150.909 14.6641 152.458 14.293 154.151 14.293C156.026 14.293 157.412 14.6771 158.311 15.4453C159.222 16.2005 159.678 17.1706 159.678 18.3555ZM156.084 17.8672C156.084 17.3594 156.013 16.9622 155.87 16.6758C155.726 16.3763 155.544 16.1549 155.323 16.0117C155.088 15.8555 154.841 15.7578 154.58 15.7188C154.32 15.6797 154.053 15.6602 153.78 15.6602C152.217 15.6602 150.772 16.5195 149.444 18.2383C148.129 19.957 147.295 22.099 146.944 24.6641C147.855 24.5339 148.884 24.3516 150.03 24.1172C151.176 23.8698 152.126 23.5508 152.881 23.1602C153.962 22.6003 154.763 21.8841 155.284 21.0117C155.817 20.1263 156.084 19.0781 156.084 17.8672ZM165.577 34.4102C164.34 34.4102 163.435 34.1628 162.862 33.668C162.29 33.1602 162.003 32.4375 162.003 31.5C162.003 31.2005 162.023 30.9206 162.062 30.6602C162.101 30.3867 162.153 30.0807 162.218 29.7422L165.245 16.6953H161.769L162.179 14.918H165.734L167.101 9.19531H170.616L169.288 14.918H174.737L174.327 16.6953H168.917L166.417 27.457C166.3 27.9518 166.202 28.4336 166.124 28.9023C166.046 29.3581 166.007 29.7487 166.007 30.0742C166.007 30.7904 166.183 31.3177 166.534 31.6562C166.899 31.9818 167.55 32.1445 168.487 32.1445C168.826 32.1445 169.301 32.1055 169.913 32.0273C170.525 31.9362 171.001 31.8255 171.339 31.6953L171.007 33.1211C170.096 33.4727 169.236 33.7721 168.429 34.0195C167.622 34.2799 166.671 34.4102 165.577 34.4102ZM183.527 31.8711L183.234 33.1211C182.036 33.6029 181.079 33.9349 180.363 34.1172C179.647 34.3125 179.035 34.4102 178.527 34.4102C177.486 34.4102 176.704 34.1432 176.184 33.6094C175.663 33.0625 175.402 32.3919 175.402 31.5977C175.402 31.2982 175.428 30.9857 175.48 30.6602C175.533 30.3346 175.617 29.9245 175.734 29.4297L177.805 21.1289C177.909 20.6732 178.007 20.1849 178.098 19.6641C178.202 19.1432 178.254 18.7005 178.254 18.3359C178.254 17.6068 178.13 17.125 177.883 16.8906C177.648 16.6432 177.16 16.5195 176.418 16.5195C176.132 16.5195 175.747 16.5651 175.266 16.6562C174.797 16.7474 174.439 16.8255 174.191 16.8906L174.484 15.6406C175.5 15.1849 176.411 14.8464 177.219 14.625C178.026 14.4036 178.664 14.293 179.133 14.293C180.201 14.293 180.975 14.5469 181.457 15.0547C181.939 15.5625 182.18 16.2461 182.18 17.1055C182.18 17.3398 182.154 17.6589 182.102 18.0625C182.049 18.4661 181.971 18.8698 181.867 19.2734L179.777 27.5742C179.647 28.082 179.53 28.5833 179.426 29.0781C179.335 29.5599 179.289 29.957 179.289 30.2695C179.289 31.0117 179.452 31.5195 179.777 31.793C180.116 32.0664 180.656 32.2031 181.398 32.2031C181.646 32.2031 181.997 32.1706 182.453 32.1055C182.922 32.0404 183.28 31.9622 183.527 31.8711ZM184.914 6.91016C184.914 7.65234 184.673 8.30339 184.191 8.86328C183.71 9.41016 183.111 9.68359 182.395 9.68359C181.73 9.68359 181.158 9.42318 180.676 8.90234C180.194 8.36849 179.953 7.76302 179.953 7.08594C179.953 6.36979 180.194 5.74479 180.676 5.21094C181.158 4.67708 181.73 4.41016 182.395 4.41016C183.137 4.41016 183.742 4.66406 184.211 5.17188C184.68 5.66667 184.914 6.24609 184.914 6.91016ZM206.321 31.7344L206.028 32.9844C204.856 33.4531 203.945 33.7917 203.294 34C202.643 34.2214 201.985 34.332 201.321 34.332C200.279 34.332 199.498 34.0651 198.977 33.5312C198.457 32.9844 198.196 32.3138 198.196 31.5195C198.196 31.2331 198.222 30.9206 198.274 30.582C198.326 30.2305 198.411 29.8203 198.528 29.3516L200.442 22.0664C200.585 21.5065 200.696 20.9987 200.774 20.543C200.865 20.0872 200.911 19.7227 200.911 19.4492C200.911 18.5768 200.703 17.8867 200.286 17.3789C199.869 16.8711 199.251 16.6172 198.43 16.6172C197.636 16.6172 196.744 16.8776 195.755 17.3984C194.765 17.9193 193.834 18.6745 192.962 19.6641L189.661 34H186.028L188.938 21.3438C189.003 21.0312 189.095 20.582 189.212 19.9961C189.342 19.3971 189.407 18.9154 189.407 18.5508C189.407 17.8216 189.283 17.3333 189.036 17.0859C188.789 16.8385 188.294 16.7148 187.552 16.7148C187.265 16.7148 186.901 16.7669 186.458 16.8711C186.015 16.9622 185.67 17.0404 185.423 17.1055L185.716 15.8555C186.731 15.3997 187.63 15.0612 188.411 14.8398C189.192 14.6185 189.863 14.5078 190.423 14.5078C191.451 14.5078 192.187 14.7878 192.63 15.3477C193.072 15.9076 193.307 16.6823 193.333 17.6719H193.45C194.882 16.526 196.119 15.6797 197.161 15.1328C198.203 14.5729 199.388 14.293 200.716 14.293C201.966 14.293 202.942 14.6576 203.645 15.3867C204.348 16.1029 204.7 17.0469 204.7 18.2188C204.7 18.4531 204.661 18.8698 204.583 19.4688C204.518 20.0677 204.407 20.6602 204.251 21.2461L202.61 27.5156C202.493 27.9323 202.376 28.4141 202.259 28.9609C202.154 29.4948 202.102 29.9115 202.102 30.2109C202.102 30.9531 202.265 31.4609 202.591 31.7344C202.916 31.9948 203.45 32.125 204.192 32.125C204.44 32.125 204.791 32.0859 205.247 32.0078C205.716 31.9167 206.074 31.8255 206.321 31.7344ZM220.521 31.3633L220.384 31.3242C220.124 31.5326 219.753 31.8255 219.271 32.2031C218.802 32.5807 218.308 32.9128 217.787 33.1992C217.188 33.5508 216.582 33.8372 215.97 34.0586C215.358 34.2799 214.681 34.3906 213.939 34.3906C212.051 34.3906 210.593 33.7266 209.564 32.3984C208.548 31.0573 208.041 29.2148 208.041 26.8711C208.041 25.2565 208.334 23.6875 208.92 22.1641C209.518 20.6406 210.332 19.2865 211.361 18.1016C212.351 16.9557 213.535 16.0378 214.916 15.3477C216.296 14.6445 217.741 14.293 219.252 14.293C220.189 14.293 221.074 14.4167 221.908 14.6641C222.741 14.8984 223.412 15.1784 223.92 15.5039L227.494 14.5859L227.728 14.8789L224.447 30.2695C223.952 32.6003 223.314 34.5664 222.533 36.168C221.765 37.7826 220.873 39.0586 219.857 39.9961C218.815 40.9596 217.663 41.6432 216.4 42.0469C215.15 42.4635 213.731 42.6719 212.142 42.6719C211.061 42.6719 210.176 42.5872 209.486 42.418C208.809 42.2487 208.275 42.0273 207.884 41.7539C207.494 41.4805 207.227 41.168 207.084 40.8164C206.953 40.4779 206.888 40.1523 206.888 39.8398C206.888 39.2539 207.064 38.7591 207.416 38.3555C207.767 37.9648 208.249 37.7695 208.861 37.7695C209.343 37.7695 209.753 37.9062 210.091 38.1797C210.43 38.4661 210.703 38.7721 210.912 39.0977C211.133 39.4362 211.348 39.8398 211.556 40.3086C211.765 40.7773 211.921 41.1289 212.025 41.3633H212.611C213.327 41.3633 214.095 41.2005 214.916 40.875C215.736 40.5495 216.485 40.0221 217.162 39.293C217.852 38.5378 218.496 37.5221 219.095 36.2461C219.694 34.9831 220.17 33.3555 220.521 31.3633ZM223.138 18.8828C223.138 18.5182 223.08 18.1471 222.962 17.7695C222.858 17.3789 222.657 17.0208 222.357 16.6953C222.071 16.3828 221.706 16.1354 221.263 15.9531C220.821 15.7708 220.254 15.6797 219.564 15.6797C218.561 15.6797 217.611 15.9857 216.712 16.5977C215.827 17.1966 215.026 18.0234 214.31 19.0781C213.646 20.0677 213.106 21.2656 212.689 22.6719C212.272 24.0781 212.064 25.4909 212.064 26.9102C212.064 27.6784 212.116 28.388 212.22 29.0391C212.337 29.6771 212.533 30.237 212.806 30.7188C213.08 31.2005 213.438 31.5781 213.88 31.8516C214.336 32.112 214.922 32.2422 215.638 32.2422C216.55 32.2422 217.455 31.9818 218.353 31.4609C219.252 30.9271 220.104 30.25 220.912 29.4297L223.138 18.8828Z" fill="url(#paint0_linear_110_521)"/>
<g filter="url(#filter0_dddddd_110_521)">
<path d="M25 43C56.3063 39.9591 144.016 38.1428 230 42.9999" stroke="#E9DEFF" stroke-width="2" stroke-linecap="round"/>
<path d="M25 43C56.3063 39.9591 144.016 38.1428 230 42.9999" stroke="url(#paint1_linear_110_521)" stroke-width="2" stroke-linecap="round"/>
</g>
<defs>
<filter id="filter0_dddddd_110_521" x="0.573952" y="15.5741" width="253.852" height="51.852" filterUnits="userSpaceOnUse" color-interpolation-filters="sRGB">
<feFlood flood-opacity="0" result="BackgroundImageFix"/>
<feColorMatrix in="SourceAlpha" type="matrix" values="0 0 0 0 0 0 0 0 0 0 0 0 0 0 0 0 0 0 127 0" result="hardAlpha"/>
<feOffset/>
<feGaussianBlur stdDeviation="0.787037"/>
<feColorMatrix type="matrix" values="0 0 0 0 0.635294 0 0 0 0 0.176471 0 0 0 0 0.968627 0 0 0 0.1 0"/>
<feBlend mode="normal" in2="BackgroundImageFix" result="effect1_dropShadow_110_521"/>
<feColorMatrix in="SourceAlpha" type="matrix" values="0 0 0 0 0 0 0 0 0 0 0 0 0 0 0 0 0 0 127 0" result="hardAlpha"/>
<feOffset/>
<feGaussianBlur stdDeviation="1.62963"/>
<feColorMatrix type="matrix" values="0 0 0 0 0.635294 0 0 0 0 0.176471 0 0 0 0 0.968627 0 0 0 0.1 0"/>
<feBlend mode="normal" in2="effect1_dropShadow_110_521" result="effect2_dropShadow_110_521"/>
<feColorMatrix in="SourceAlpha" type="matrix" values="0 0 0 0 0 0 0 0 0 0 0 0 0 0 0 0 0 0 127 0" result="hardAlpha"/>
<feOffset/>
<feGaussianBlur stdDeviation="3.25"/>
<feColorMatrix type="matrix" values="0 0 0 0 0.635294 0 0 0 0 0.176471 0 0 0 0 0.968627 0 0 0 0.1 0"/>
<feBlend mode="normal" in2="effect2_dropShadow_110_521" result="effect3_dropShadow_110_521"/>
<feColorMatrix in="SourceAlpha" type="matrix" values="0 0 0 0 0 0 0 0 0 0 0 0 0 0 0 0 0 0 127 0" result="hardAlpha"/>
<feOffset/>
<feGaussianBlur stdDeviation="6.37037"/>
<feColorMatrix type="matrix" values="0 0 0 0 0.635294 0 0 0 0 0.176471 0 0 0 0 0.968627 0 0 0 0.1 0"/>
<feBlend mode="normal" in2="effect3_dropShadow_110_521" result="effect4_dropShadow_110_521"/>
<feColorMatrix in="SourceAlpha" type="matrix" values="0 0 0 0 0 0 0 0 0 0 0 0 0 0 0 0 0 0 127 0" result="hardAlpha"/>
<feOffset/>
<feGaussianBlur stdDeviation="11.713"/>
<feColorMatrix type="matrix" values="0 0 0 0 0.635294 0 0 0 0 0.176471 0 0 0 0 0.968627 0 0 0 0.1 0"/>
<feBlend mode="normal" in2="effect4_dropShadow_110_521" result="effect5_dropShadow_110_521"/>
<feColorMatrix in="SourceAlpha" type="matrix" values="0 0 0 0 0 0 0 0 0 0 0 0 0 0 0 0 0 0 127 0" result="hardAlpha"/>
<feMorphology radius="4.5" operator="dilate" in="SourceAlpha" result="effect6_dropShadow_110_521"/>
<feOffset/>
<feGaussianBlur stdDeviation="4.75"/>
<feComposite in2="hardAlpha" operator="out"/>
<feColorMatrix type="matrix" values="0 0 0 0 0.635294 0 0 0 0 0.176471 0 0 0 0 0.968627 0 0 0 0.1 0"/>
<feBlend mode="normal" in2="effect5_dropShadow_110_521" result="effect6_dropShadow_110_521"/>
<feBlend mode="normal" in="SourceGraphic" in2="effect6_dropShadow_110_521" result="shape"/>
</filter>
<linearGradient id="paint0_linear_110_521" x1="127.5" y1="14.3689" x2="204.898" y2="35.1684" gradientUnits="userSpaceOnUse">
<stop stop-color="#333333"/>
<stop offset="1" stop-color="#333333"/>
</linearGradient>
<linearGradient id="paint1_linear_110_521" x1="42.7589" y1="41.2267" x2="54.9506" y2="88.6195" gradientUnits="userSpaceOnUse">
<stop stop-color="#333333"/>
<stop offset="1" stop-color="#333333"/>
</linearGradient>
</defs>
</svg>
